<svg xmlns="http://www.w3.org/2000/svg" width="25" height="24" viewBox="0 0 25 24" fill="none">
  <path d="M19.2251 7.9499L18.3001 5.7999L16.0501 4.7999L18.3001 3.8499L19.2251 1.7749L20.1501 3.8499L22.4001 4.7999L20.1501 5.7999L19.2251 7.9499ZM19.2251 22.1999L18.3001 20.1249L16.0501 19.1499L18.3001 18.1749L19.2251 15.9999L20.1501 18.1749L22.4001 19.1499L20.1501 20.1249L19.2251 22.1999ZM8.9001 18.1749L6.9251 13.9249L2.6001 11.9749L6.9251 10.0499L8.9001 5.8249L10.8751 10.0499L15.2001 11.9749L10.8751 13.9249L8.9001 18.1749ZM8.9001 15.3749L10.0251 13.0499L12.4001 11.9749L10.0251 10.9249L8.9001 8.5999L7.7751 10.9249L5.3751 11.9749L7.7751 13.0499L8.9001 15.3749Z" fill="#5D6CFA"></path>
</svg>